<?xml version="1.0" encoding="UTF-8"?>
<svg width="19px" height="19px" viewBox="0 0 19 19" version="1.1" xmlns="http://www.w3.org/2000/svg" xmlns:xlink="http://www.w3.org/1999/xlink">
    <!-- Generator: Sketch 50.2 (55047) - http://www.bohemiancoding.com/sketch -->
    <title>key (1)</title>
    <desc>Created with Sketch.</desc>
    <defs></defs>
    <g id="Page-1" stroke="none" stroke-width="1" fill="none" fill-rule="evenodd">
        <g id="Login" transform="translate(-679.000000, -520.000000)" fill="#000000" fill-rule="nonzero">
            <g id="Group" transform="translate(619.000000, 205.000000)">
                <g id="Group-3" transform="translate(41.000000, 220.000000)">
                    <g id="key-(1)" transform="translate(19.000000, 95.000000)">
                        <circle id="Oval" cx="13" cy="5" r="1"></circle>
                        <path d="M18.795002,6.15690812 C18.3986755,5.14749757 17.6719286,3.69106448 16.4602756,2.48484968 C15.2529272,1.28279219 13.8123103,0.576642813 12.8163731,0.195877445 C11.7229872,-0.222118149 10.4805335,0.0413515893 9.65114249,0.867060851 L6.73665881,3.76864291 C5.87271913,4.62872425 5.62371628,5.95216044 6.1170091,7.06182905 C6.2699733,7.40599522 6.43633392,7.74262625 6.61408706,8.06786179 L0.217385793,14.4661899 C0.0781891201,14.6054228 0,14.7942464 0,14.991162 L0,18.2576226 C0,18.6676376 0.332275929,19 0.742184339,19 L4.00779543,19 C4.41770384,19 4.74997977,18.6676376 4.74997977,18.2576226 L4.74997977,16.9213433 L6.08591158,16.9213062 C6.49581999,16.9213062 6.82809592,16.5889438 6.82809592,16.1789288 L6.82809592,14.8426866 L8.16402773,14.8426866 C8.57393614,14.8426866 8.90621207,14.5103242 8.90621207,14.1003092 C8.90621207,13.6902941 8.57393614,13.3579318 8.16402773,13.3579318 L6.08591158,13.3579318 C5.67600317,13.3579318 5.34372724,13.6902941 5.34372724,14.1003092 L5.34372724,15.4365514 L4.00779543,15.4365885 C3.59788702,15.4365885 3.26561109,15.7689508 3.26561109,16.1789659 L3.26561109,17.5152452 L1.48436868,17.5152452 L1.48436868,15.2986548 L8.06587385,8.71547471 C8.30767751,8.47360815 8.35298786,8.09785383 8.17564291,7.80543137 C7.91843893,7.3813854 7.68216455,6.92823824 7.4734252,6.45857318 C7.22854148,5.90769203 7.35330267,5.24961159 7.78388091,4.82092576 L10.6983275,1.91938081 C11.1144331,1.50517134 11.7377938,1.37306529 12.2865277,1.5827869 C13.148278,1.91225399 14.3902493,2.51870209 15.4132019,3.53716964 C16.4424261,4.56179893 17.0690152,5.82246711 17.4133887,6.699586 C17.6282882,7.2470151 17.4977009,7.86894176 17.0807046,8.2840792 L14.1310414,11.2207015 C13.7015022,11.6482737 13.0604034,11.7732901 12.4976421,11.5391814 C12.0335171,11.346089 11.5840132,11.1166944 11.1617103,10.8574191 C10.8124012,10.6429463 10.3553641,10.7523727 10.140947,11.1018097 C9.92652999,11.4512468 10.0358908,11.9084028 10.385237,12.1228756 C10.8732974,12.4224991 11.3922327,12.6873423 11.9275703,12.9100555 C13.0461163,13.375489 14.3220425,13.1253449 15.1781522,12.2730586 L18.1278154,9.3364734 C18.9644427,8.50356308 19.2263224,7.25551532 18.795002,6.15690812 Z" id="Shape"></path>
                    </g>
                </g>
            </g>
        </g>
    </g>
</svg>